<?xml version="1.0" encoding="UTF-8"?>
<svg xmlns="http://www.w3.org/2000/svg" viewBox="0 0 100 100" data-draw-mode="point-graph" role="img" focusable="false"><title>Billowing</title><g id="graph"><polyline data-role="vertices" points="50.00,49.09 45.83,40.40 40.76,31.52 38.22,23.01 41.85,15.04 49.64,11.23 57.25,13.95 61.59,19.38 61.78,26.99 58.33,35.51 54.71,42.39 57.25,46.92 64.13,42.93 70.83,38.95 77.17,37.86 82.97,39.49 86.05,44.75 87.68,49.28 86.41,54.89 82.07,59.42 74.09,61.78 67.21,58.88 59.42,54.71 53.62,55.98 58.15,62.50 60.51,69.75 61.59,76.09 58.33,83.51 52.90,88.59 46.20,87.50 41.85,84.60 38.41,78.26 39.13,71.20 42.21,64.49 46.38,59.24 43.12,53.44 35.14,57.43 29.17,60.33 23.55,61.23 17.75,58.15 13.59,54.17 11.05,48.01 14.13,41.67 20.47,37.50 28.26,37.50 36.23,41.30 42.03,45.11" fill="none" stroke="none" /><polyline data-role="edges" points="0,46 45,46 0,35 0,1 0,10 0,11 0,22 0,23 0,34 33,34 32,33 31,32 30,31 29,30 28,29 27,28 26,27 25,26 24,25 23,24 21,22 20,21 19,20 18,19 17,18 16,17 15,16 14,15 13,14 12,13 11,12 9,10 8,9 7,8 6,7 5,6 4,5 3,4 2,3 1,2 44,45 43,44 42,43 41,42 40,41 39,40 38,39 37,38 36,37 35,36" fill="none" stroke="none" /></g></svg>