<?xml version="1.0" encoding="UTF-8"?>
<svg xmlns="http://www.w3.org/2000/svg" viewBox="0 0 100 100" data-draw-mode="point-graph" role="img" focusable="false"><title>Bird</title><g id="graph"><polyline data-role="vertices" points="15.40,42.93 19.20,39.13 23.19,36.41 21.38,49.46 13.59,49.46 16.67,56.16 22.64,63.04 12.68,62.14 15.04,69.75 21.38,77.17 12.68,36.41 15.40,28.44 22.28,22.10 4.71,39.49 10.33,45.47 9.06,49.82 2.72,49.64 4.35,60.33 9.96,54.17 90.58,50.18 97.46,49.64 89.49,45.47 95.65,40.58 88.95,53.62 94.75,59.60 33.88,29.53 40.94,26.45 45.47,21.74 49.82,15.58 50.00,9.06 53.44,19.75 58.15,25.18 66.12,28.99 77.54,21.74 83.15,26.09 86.41,31.70 86.96,37.50 84.78,42.21 80.25,37.86 75.00,35.14 82.61,46.01 77.72,49.46 81.70,53.08 85.69,55.62 85.69,49.64 81.88,59.24 76.27,64.13 77.17,77.72 82.25,74.46 86.23,69.57 87.14,62.68" fill="none" stroke="none" /><polyline data-role="edges" points="23,24 19,20 21,22 33,34 34,35 35,36 36,37 37,38 38,39 37,40 37,44 40,41 41,42 42,43 43,44 43,45 45,46 47,48 48,49 49,50 43,50 31,32 30,31 28,30 28,29 27,28 26,27 25,26 11,12 10,11 0,10 0,1 1,2 0,3 3,5 4,5 0,4 13,14 15,16 17,18 5,7 5,6 7,8 8,9" fill="none" stroke="none" /></g></svg>