<?xml version="1.0" encoding="UTF-8"?>
<svg xmlns="http://www.w3.org/2000/svg" viewBox="0 0 100 100" data-draw-mode="point-graph" role="img" focusable="false"><title>Coil</title><g id="graph"><polyline data-role="vertices" points="41.67,91.85 49.82,81.16 54.89,68.48 57.43,55.07 56.88,39.49 53.08,26.27 46.01,14.67 40.40,8.15 59.24,8.33 53.99,14.49 49.82,20.65 44.75,31.52 43.30,41.67 42.57,53.26 44.38,64.13 47.10,73.91 58.33,90.76" fill="none" stroke="none" /><polyline data-role="edges" points="0,1 1,2 2,3 3,4 4,5 5,10 6,10 6,7 8,9 9,10 10,11 11,12 12,13 13,14 14,15 1,15 1,16" fill="none" stroke="none" /></g></svg>