<?xml version="1.0" encoding="UTF-8"?>
<svg xmlns="http://www.w3.org/2000/svg" viewBox="0 0 100 100" data-draw-mode="point-graph" role="img" focusable="false"><title>Cooling</title><g id="graph"><polyline data-role="vertices" points="49.28,20.29 49.28,79.17 29.80,33.29 34.71,33.25 32.29,31.02 32.36,35.76 30.65,34.88 33.98,34.88 34.07,31.82 30.60,31.78 29.20,66.41 33.91,66.46 31.39,64.04 31.39,68.65 29.98,67.82 32.95,67.82 33.13,64.71 29.87,64.76 67.10,65.35 67.21,70.36 69.69,67.73 64.60,67.83 65.44,66.14 68.77,66.11 68.99,69.44 65.34,69.46 64.83,33.56 71.09,33.58 67.80,30.79 67.73,36.69 65.86,35.59 70.01,35.68 69.97,31.52 65.74,31.50" fill="none" stroke="none" /><polyline data-role="edges" points="0,1 4,9 4,8 3,8 3,7 5,7 5,6 2,6 2,9 10,17 12,17 12,16 11,16 11,15 13,15 13,14 10,14 19,24 20,24 20,23 18,23 18,22 21,22 21,25 19,25 26,30 26,33 28,33 28,32 27,32 27,31 29,31 29,30" fill="none" stroke="none" /></g></svg>