<?xml version="1.0" encoding="UTF-8"?>
<svg xmlns="http://www.w3.org/2000/svg" viewBox="0 0 100 100" data-draw-mode="point-graph" role="img" focusable="false"><title>Cooling</title><g id="graph"><polyline data-role="vertices" points="32.25,31.16 29.89,32.43 31.34,34.96 33.51,33.33 67.57,31.52 65.76,33.51 67.21,35.33 69.38,33.51 67.93,65.58 69.38,67.93 67.21,69.20 65.58,67.03 31.88,64.67 29.53,66.67 31.34,68.66 33.51,67.03 49.28,20.29 49.28,79.17" fill="none" stroke="none" /><polyline data-role="edges" points="16,17 8,9 8,11 10,11 9,10 4,5 4,7 6,7 5,6 0,3 2,3 1,2 0,1 12,15 14,15 13,14 12,13" fill="none" stroke="none" /></g></svg>