<?xml version="1.0" encoding="UTF-8"?>
<svg xmlns="http://www.w3.org/2000/svg" viewBox="0 0 100 100" data-draw-mode="point-graph" role="img" focusable="false"><title>DancingPuppet</title><g id="graph"><polyline data-role="vertices" points="7.43,32.07 6.52,38.95 11.59,48.73 8.15,55.98 6.70,68.12 16.30,43.84 22.64,43.12 27.36,46.20 27.54,52.17 24.64,56.34 18.30,56.70 22.46,62.14 28.08,71.38 17.75,82.61 34.78,76.27 42.39,78.99 57.79,79.17 44.20,74.09 50.36,71.74 55.62,73.73 44.38,83.88 49.64,88.04 55.43,84.24 44.02,91.49 38.22,93.30 32.07,92.57 55.80,91.30 60.33,93.84 67.75,92.93 63.22,76.81 71.20,71.74 82.25,82.25 75.91,65.76 79.17,57.61 85.14,55.80 88.04,49.82 85.33,44.38 79.17,41.85 73.19,45.47 71.38,50.36 73.73,55.07 92.39,43.48 93.30,32.07 92.39,57.07 93.12,61.23 93.30,66.49 93.48,37.86 76.63,35.14 72.28,28.62 84.24,15.94 66.30,24.28 58.33,20.11 55.25,13.95 50.00,10.87 45.11,14.67 41.85,21.56 44.93,26.45 49.46,28.99 55.07,25.36 56.34,7.97 63.04,6.16 68.66,7.25 41.67,6.52 32.97,6.88 34.60,24.09 29.35,27.90 24.46,34.42 16.49,16.30" fill="none" stroke="none" /><polyline data-role="edges" points="12,13 11,12 9,11 8,9 10,11 9,10 2,10 2,3 3,4 1,2 0,1 2,5 5,6 6,7 7,8 6,66 65,66 65,67 64,65 55,64 54,55 53,54 53,59 59,60 60,61 53,62 62,63 55,56 56,57 57,58 51,58 51,52 52,53 50,51 48,50 48,49 47,48 37,47 36,37 35,36 35,41 41,46 42,46 37,38 38,39 39,40 33,40 33,34 34,35 35,43 43,44 44,45 32,33 30,32 30,31 29,30 16,29 16,19 18,19 17,18 15,17 14,15 12,14 15,20 20,21 21,23 23,24 24,25 21,22 16,22 21,26 27,28 26,27" fill="none" stroke="none" /></g></svg>