<?xml version="1.0" encoding="UTF-8"?>
<svg xmlns="http://www.w3.org/2000/svg" viewBox="0 0 100 100" data-draw-mode="point-graph" role="img" focusable="false"><title>Enlarge</title><g id="graph"><polyline data-role="vertices" points="8.33,57.79 17.03,57.79 25.72,57.43 25.91,42.03 17.57,41.85 8.33,41.85 25.91,25.36 17.03,17.03 7.79,7.79 42.39,8.70 42.39,17.21 42.39,25.72 57.97,25.91 57.61,17.57 57.61,8.33 82.61,17.39 90.94,8.88 74.09,25.36 74.09,41.85 82.79,42.21 91.67,42.21 74.46,57.43 74.64,74.09 57.61,74.09 42.57,73.91 25.72,74.09 17.39,82.79 8.51,91.30 42.39,92.03 42.39,83.15 57.61,82.97 57.61,91.67 91.30,91.49 82.79,82.43 82.79,57.43 91.30,57.97" fill="none" stroke="none" /><polyline data-role="edges" points="22,23 21,22 33,34 30,33 31,32 32,35 16,20 14,16 13,15 15,19 17,18 12,17 6,11 3,6 4,7 7,10 8,9 5,8 0,27 27,28 26,29 1,26 2,25 24,25" fill="none" stroke="none" /></g></svg>