<?xml version="1.0" encoding="UTF-8"?>
<svg xmlns="http://www.w3.org/2000/svg" viewBox="0 0 100 100" data-draw-mode="point-graph" role="img" focusable="false"><title>Eye</title><g id="graph"><polyline data-role="vertices" points="50.00,45.65 54.35,47.46 55.43,51.27 53.62,53.80 50.72,55.25 46.38,54.35 44.38,50.54 45.83,46.92 50.00,33.33 59.60,35.51 67.03,38.04 73.37,42.39 77.72,47.28 81.16,53.80 76.63,58.33 70.83,63.04 63.95,65.94 57.79,67.39 50.91,67.75 44.02,67.39 37.32,66.49 30.98,64.49 25.54,61.23 20.83,57.43 18.66,53.99 21.92,47.83 27.17,41.85 34.42,37.14 41.67,34.24" fill="none" stroke="none" /><polyline data-role="edges" points="0,7 0,1 1,2 2,3 3,4 4,5 5,6 6,7 8,28 8,9 9,10 10,11 11,12 12,13 13,14 14,15 15,16 16,17 17,18 18,19 19,20 20,21 21,22 22,23 23,24 24,25 25,26 26,27 27,28" fill="none" stroke="none" /></g></svg>