<?xml version="1.0" encoding="UTF-8"?>
<svg xmlns="http://www.w3.org/2000/svg" viewBox="0 0 100 100" data-draw-mode="point-graph" role="img" focusable="false"><title>Float</title><g id="graph"><polyline data-role="vertices" points="44.93,21.38 39.49,28.99 35.87,35.14 34.06,39.86 36.96,44.02 41.12,47.83 45.47,51.63 48.73,55.80 51.27,60.14 49.28,65.04 46.01,71.20 40.94,77.54 55.07,77.54 59.42,73.37 62.68,67.57 65.04,60.87 62.68,55.62 57.97,50.18 53.80,45.65 50.36,41.49 49.28,36.78 52.17,31.16 55.25,26.45 59.06,21.56" fill="none" stroke="none" /><polyline data-role="edges" points="0,1 1,2 2,3 3,4 4,5 5,6 6,7 7,8 8,9 9,10 10,11 12,13 13,14 14,15 15,16 16,17 17,18 18,19 19,20 20,21 21,22 22,23" fill="none" stroke="none" /></g></svg>