<?xml version="1.0" encoding="UTF-8"?>
<svg xmlns="http://www.w3.org/2000/svg" viewBox="0 0 100 100" data-draw-mode="point-graph" role="img" focusable="false"><title>Orb</title><g id="graph"><polyline data-role="vertices" points="50.36,21.20 50.18,78.99 50.00,71.56 43.84,70.29 36.78,66.67 31.52,61.41 29.53,54.89 29.35,47.83 30.98,40.58 35.87,34.24 41.49,29.71 50.00,28.62 58.15,30.62 64.67,34.42 68.84,40.04 71.01,46.20 71.38,51.45 70.11,57.79 67.03,63.59 62.50,67.75 57.43,70.29" fill="none" stroke="none" /><polyline data-role="edges" points="0,1 2,3 3,4 4,5 5,6 6,7 7,8 8,9 9,10 10,11 11,12 12,13 13,14 14,15 15,16 16,17 17,18 18,19 19,20 2,20" fill="none" stroke="none" /></g></svg>