<?xml version="1.0" encoding="UTF-8"?>
<svg xmlns="http://www.w3.org/2000/svg" viewBox="0 0 100 100" data-draw-mode="point-graph" role="img" focusable="false"><title>Purify</title><g id="graph"><polyline data-role="vertices" points="44.75,22.10 49.46,25.36 53.62,30.80 56.70,36.96 58.70,42.39 59.96,48.91 59.78,56.52 57.79,62.68 54.71,67.75 50.54,71.74 44.57,72.46 38.59,70.83 34.42,66.30 33.15,60.14 35.51,55.07 41.85,53.80 45.29,56.52" fill="none" stroke="none" /><polyline data-role="edges" points="0,1 1,2 2,3 3,4 4,5 5,6 6,7 7,8 8,9 9,10 10,11 11,12 12,13 13,14 14,15 15,16" fill="none" stroke="none" /></g></svg>