<?xml version="1.0" encoding="UTF-8"?>
<svg xmlns="http://www.w3.org/2000/svg" viewBox="0 0 100 100" data-draw-mode="point-graph" role="img" focusable="false"><title>Radial</title><g id="graph"><polyline data-role="vertices" points="20.11,60.33 37.14,63.41 62.68,63.41 79.71,60.87 79.89,54.89 20.65,54.53 23.55,48.01 26.81,42.21 32.07,37.32 37.32,33.70 45.29,30.98 49.64,29.89 56.16,31.52 61.05,33.88 64.86,35.69 70.29,39.31 73.73,43.30 77.90,49.64 62.68,57.07 59.60,52.72 55.07,49.46 50.36,47.46 45.29,48.55 40.58,51.27 37.32,56.70" fill="none" stroke="none" /><polyline data-role="edges" points="0,5 5,6 6,7 7,8 8,9 9,10 10,11 11,12 12,13 13,14 14,15 15,16 16,17 4,17 3,4 2,18 18,19 19,20 20,21 21,22 22,23 23,24 1,24" fill="none" stroke="none" /></g></svg>