<?xml version="1.0" encoding="UTF-8"?>
<svg xmlns="http://www.w3.org/2000/svg" viewBox="0 0 100 100" data-draw-mode="point-graph" role="img" focusable="false"><title>Rain</title><g id="graph"><polyline data-role="vertices" points="12.86,57.79 27.17,57.07 3.08,49.82 28.26,50.00 13.04,42.57 27.17,42.21 25.72,35.51 23.37,27.72 19.38,18.84 28.26,22.83 41.67,26.27 50.00,27.36 57.61,26.45 66.30,24.46 75.54,21.20 84.06,16.30 77.54,25.18 73.91,32.43 71.92,41.30 71.56,49.82 72.64,57.79 74.28,67.03 78.08,75.91 81.70,83.88 74.28,78.62 66.85,75.00 57.97,72.10 50.54,71.38 42.39,72.83 35.14,74.64 26.81,77.90 16.85,84.06 21.92,75.54 25.91,66.12 42.39,86.41 50.00,97.28 56.88,87.14 86.78,56.88 96.56,49.64 87.14,42.93 57.07,13.59 49.64,3.62 42.57,13.41" fill="none" stroke="none" /><polyline data-role="edges" points="4,5 2,3 0,1 10,42 11,41 12,40 28,34 27,35 26,36 20,37 19,38 18,39 18,19 19,20 20,21 21,22 22,23 23,24 24,25 25,26 26,27 27,28 28,29 29,30 30,31 31,32 32,33 1,33 1,3 3,5 5,6 6,7 7,8 8,9 9,10 10,11 11,12 12,13 13,14 14,15 15,16 16,17 17,18" fill="none" stroke="none" /></g></svg>