<?xml version="1.0" encoding="UTF-8"?>
<svg xmlns="http://www.w3.org/2000/svg" viewBox="0 0 100 100" data-draw-mode="point-graph" role="img" focusable="false"><title>Repetition</title><g id="graph"><polyline data-role="vertices" points="13.41,57.79 25.96,45.40 73.37,54.53 86.78,42.03 34.60,52.17 41.12,56.88 48.91,60.14 56.34,58.51 60.51,52.90 39.86,48.01 43.66,42.75 50.91,38.95 57.25,41.67 64.67,46.38 73.91,47.46 72.28,60.33 66.49,67.03 60.51,72.10 51.27,74.82 43.66,73.37 36.78,70.65 30.25,65.76 27.17,56.88 29.35,38.22 36.41,30.25 47.10,26.45 57.25,26.45 65.22,32.07 71.56,37.86 47.53,47.60 52.50,47.54 52.53,52.51 47.42,52.51 50.02,53.81 53.74,50.06 50.04,46.27 46.15,50.09" fill="none" stroke="none" /><polyline data-role="edges" points="0,1 1,4 4,5 5,6 6,7 7,8 9,10 10,11 11,12 12,13 2,13 2,14 2,3 14,28 27,28 26,27 25,26 24,25 23,24 1,23 1,22 21,22 20,21 19,20 18,19 17,18 16,17 15,16 2,15 32,36 29,36 29,35 30,35 30,34 31,34 31,33 32,33" fill="none" stroke="none" /></g></svg>