<?xml version="1.0" encoding="UTF-8"?>
<svg xmlns="http://www.w3.org/2000/svg" viewBox="0 0 100 100" data-draw-mode="point-graph" role="img" focusable="false"><title>Solidify</title><g id="graph"><polyline data-role="vertices" points="48.37,36.05 43.84,34.60 39.13,31.34 36.59,26.99 35.33,21.20 39.31,13.95 46.56,10.69 54.89,12.86 59.60,17.93 61.05,24.28 58.51,31.16 53.62,34.42 48.73,63.95 55.07,66.49 60.14,71.74 60.69,76.63 59.60,82.25 55.62,86.41 50.91,88.77 46.01,88.41 40.04,84.96 36.23,80.25 35.87,74.09 38.59,68.48 42.75,65.04" fill="none" stroke="none" /><polyline data-role="edges" points="0,1 1,2 2,3 3,4 4,5 5,6 6,7 7,8 8,9 9,10 10,11 0,11 12,13 13,14 14,15 15,16 16,17 17,18 18,19 19,20 20,21 21,22 22,23 23,24 12,24 0,12" fill="none" stroke="none" /></g></svg>