<?xml version="1.0" encoding="UTF-8"?>
<svg xmlns="http://www.w3.org/2000/svg" viewBox="0 0 100 100" data-draw-mode="point-graph" role="img" focusable="false"><title>Stasis</title><g id="graph"><polyline data-role="vertices" points="29.17,18.84 28.99,23.55 29.17,30.25 30.98,36.23 34.24,41.30 42.03,44.20 50.00,44.57 57.61,43.84 64.67,42.39 68.48,38.04 71.01,31.70 71.56,25.72 71.20,18.66 50.36,17.39 50.18,92.03 31.16,54.89 68.12,54.71 30.07,93.66 29.53,87.50 29.53,80.80 30.43,73.55 34.78,68.84 42.93,66.49 50.00,66.30 58.33,66.30 64.31,67.03 68.12,71.74 70.11,78.80 70.11,85.69 70.11,92.39" fill="none" stroke="none" /><polyline data-role="edges" points="13,14 15,16 0,1 1,2 2,3 3,4 4,5 5,6 6,7 7,8 8,9 9,10 10,11 11,12 17,18 18,19 19,20 20,21 21,22 22,23 23,24 24,25 25,26 26,27 27,28 28,29" fill="none" stroke="none" /></g></svg>