<?xml version="1.0" encoding="UTF-8"?>
<svg xmlns="http://www.w3.org/2000/svg" viewBox="0 0 100 100" data-draw-mode="point-graph" role="img" focusable="false"><title>Weave</title><g id="graph"><polyline data-role="vertices" points="8.15,92.75 21.38,79.71 14.49,71.01 9.78,61.41 7.97,50.54 9.24,39.31 14.86,27.54 22.28,18.30 29.89,12.50 41.30,8.70 50.91,7.43 59.96,9.78 69.75,13.41 79.53,19.38 86.05,28.26 90.58,38.04 92.21,46.38 91.30,54.53 89.13,63.22 84.60,71.74 79.17,78.44 92.75,93.30" fill="none" stroke="none" /><polyline data-role="edges" points="0,1 1,2 2,3 3,4 4,5 5,6 6,7 7,8 8,9 9,10 10,11 11,12 12,13 13,14 14,15 15,16 16,17 17,18 18,19 19,20 20,21" fill="none" stroke="none" /></g></svg>