<?xml version="1.0" encoding="UTF-8"?>
<svg xmlns="http://www.w3.org/2000/svg" viewBox="0 0 100 100" data-draw-mode="point-graph" role="img" focusable="false"><title>Wind</title><g id="graph"><polyline data-role="vertices" points="40.76,41.49 46.92,41.12 52.17,40.22 57.07,37.14 57.61,32.25 55.62,27.17 51.09,25.00 45.83,26.81 42.21,31.52 40.76,36.05 42.21,48.01 44.75,53.99 47.64,60.14 51.09,66.12 54.35,71.20 58.51,74.82" fill="none" stroke="none" /><polyline data-role="edges" points="14,15 13,14 12,13 11,12 10,11 0,10 0,9 8,9 7,8 6,7 5,6 4,5 3,4 2,3 1,2 0,1" fill="none" stroke="none" /></g></svg>