<?xml version="1.0" encoding="UTF-8"?>
<svg xmlns="http://www.w3.org/2000/svg" viewBox="0 0 100 100" data-draw-mode="point-graph" role="img" focusable="false"><title>Aeriforms</title><g id="graph"><polyline data-role="vertices" points="15.40,29.89 23.73,50.00 5.43,38.04 2.17,50.54 5.98,62.50 15.40,71.01 84.96,29.89 93.66,37.50 97.83,49.82 94.02,61.96 84.24,70.47 76.99,49.28 52.93,25.75 49.16,29.10 49.16,34.11 51.88,37.04 57.11,38.29 62.12,35.37 64.42,30.35 64.84,25.13 61.71,19.06 57.53,16.35 51.67,14.67 45.61,15.09 39.34,19.48 35.58,24.29 33.90,30.14 35.79,37.46 39.55,42.89 44.98,45.82 52.30,51.46 57.53,54.60 62.54,59.41 64.42,63.17 65.05,69.65 64.63,75.08 60.87,79.47 55.43,83.86 49.16,84.70 42.89,84.07 37.88,79.06 34.53,73.41 35.58,66.93 39.13,62.12 45.40,61.08 50.21,64.63 50.63,69.23 46.66,73.62 10.26,21.04 11.20,22.76 13.05,23.63 14.80,22.76 15.67,20.95 14.77,19.23 12.99,18.40 11.20,19.16 87.01,22.82 85.17,21.85 84.27,20.04 85.14,18.15 87.01,17.22 88.88,18.17 89.83,20.06 88.86,21.85 86.98,77.31 89.85,80.02 86.98,82.89 84.13,80.04 85.04,78.09 88.86,78.14 88.85,81.89 85.13,81.85 10.46,80.47 11.15,78.86 13.05,78.16 15.03,79.06 15.62,80.51 15.08,82.15 13.03,82.99 11.08,82.09" fill="none" stroke="none" /><polyline data-role="edges" points="0,1 1,2 1,3 1,4 1,5 6,11 7,11 8,11 9,11 10,11 12,13 13,14 14,15 15,16 16,17 17,18 18,19 19,20 20,21 21,22 22,23 23,24 24,25 25,26 26,27 27,28 28,29 29,30 30,31 31,32 32,33 33,34 34,35 35,36 36,37 37,38 38,39 39,40 40,41 41,42 42,43 43,44 44,45 45,46 46,47 48,49 49,50 50,51 51,52 52,53 53,54 54,55 48,55 56,63 62,63 61,62 60,61 59,60 58,59 57,58 56,57 67,71 66,71 66,70 65,70 65,69 64,69 64,68 67,68 72,73 73,74 74,75 75,76 76,77 77,78 78,79 72,79" fill="none" stroke="none" /></g></svg>