<?xml version="1.0" encoding="UTF-8"?>
<svg xmlns="http://www.w3.org/2000/svg" viewBox="0 0 100 100" data-draw-mode="point-graph" role="img" focusable="false"><title>Earth</title><g id="graph"><polyline data-role="vertices" points="36.41,41.30 63.77,40.76 77.17,54.89 50.18,74.64 22.64,54.53 49.82,24.46 22.46,24.64 77.54,25.00 12.37,48.75 9.03,45.61 12.37,42.68 15.51,46.24 84.49,46.03 87.21,48.75 89.51,45.82 86.79,43.31" fill="none" stroke="none" /><polyline data-role="edges" points="0,4 3,4 2,3 1,2 3,5 5,6 5,7 8,9 9,10 10,11 8,11 12,15 14,15 13,14 12,13" fill="none" stroke="none" /></g></svg>