<?xml version="1.0" encoding="UTF-8"?>
<svg xmlns="http://www.w3.org/2000/svg" viewBox="0 0 100 100" data-draw-mode="point-graph" role="img" focusable="false"><title>Earth</title><g id="graph"><polyline data-role="vertices" points="36.41,41.30 63.77,40.76 77.17,54.89 50.18,74.64 22.64,54.53 49.82,24.46 22.46,24.64 77.54,25.00 12.46,49.27 15.00,48.24 15.99,46.01 15.14,43.81 12.50,42.80 10.03,43.93 9.27,45.97 10.03,48.32 90.87,45.99 84.22,46.00 84.94,43.69 89.99,43.70 90.04,48.42 85.04,48.49 87.48,48.99 87.48,43.03" fill="none" stroke="none" /><polyline data-role="edges" points="0,4 3,4 2,3 1,2 3,5 5,6 5,7 13,14 12,13 11,12 10,11 9,10 8,9 8,15 14,15 18,23 19,23 16,19 16,20 20,22 21,22 17,21 17,18" fill="none" stroke="none" /></g></svg>