<?xml version="1.0" encoding="UTF-8"?>
<svg xmlns="http://www.w3.org/2000/svg" viewBox="0 0 100 100" data-draw-mode="point-graph" role="img" focusable="false"><title>Water</title><g id="graph"><polyline data-role="vertices" points="28.08,32.79 31.70,44.75 34.24,54.35 34.42,61.23 32.25,65.76 27.36,67.03 22.83,64.86 21.01,60.51 21.92,52.54 25.00,42.57 71.92,66.49 68.84,57.25 66.85,48.73 64.86,39.49 67.39,33.88 72.64,32.25 77.90,34.78 79.71,39.31 78.62,43.84 76.63,52.72 41.85,85.33 46.03,85.12 50.00,82.40 53.34,79.47 55.85,74.04 56.27,69.23 56.06,62.75 53.97,56.48 50.63,51.46 47.28,44.77 43.94,39.34 42.47,32.44 42.68,25.75 46.86,19.27 50.42,15.93 57.11,14.46" fill="none" stroke="none" /><polyline data-role="edges" points="5,6 6,7 7,8 8,9 0,9 0,1 1,2 2,3 3,4 4,5 14,15 13,14 12,13 11,12 10,11 10,19 18,19 17,18 16,17 15,16 20,21 21,22 22,23 23,24 24,25 25,26 26,27 27,28 28,29 29,30 30,31 31,32 32,33 33,34 34,35" fill="none" stroke="none" /></g></svg>