<?xml version="1.0" encoding="UTF-8"?>
<svg xmlns="http://www.w3.org/2000/svg" viewBox="0 0 100 100" data-draw-mode="point-graph" role="img" focusable="false"><title>Wind</title><g id="graph"><polyline data-role="vertices" points="6.88,50.18 13.41,33.33 22.46,42.39 29.35,49.46 22.46,58.15 13.59,66.49 86.96,66.67 77.54,57.97 70.83,50.18 77.54,41.67 86.23,32.79 93.66,50.18 46.92,73.55 50.18,69.57 50.54,65.58 46.92,61.41 40.76,61.41 37.14,64.86 34.78,71.38 36.23,76.81 40.40,82.43 45.29,84.24 53.44,84.24 58.51,82.25 62.86,78.26 65.40,73.37 65.94,65.22 63.41,60.14 58.33,54.71 39.31,41.30 35.69,36.41 34.42,30.43 35.69,24.28 39.49,18.66 43.84,15.76 50.18,13.95 56.52,15.22 61.23,18.30 64.49,22.64 65.22,27.90 63.41,33.33 60.51,36.96 56.34,38.77 51.27,36.59 49.09,32.25 50.36,27.72 53.80,25.00" fill="none" stroke="none" /><polyline data-role="edges" points="4,5 0,3 1,2 9,10 8,11 6,7 45,46 44,45 43,44 42,43 41,42 40,41 39,40 38,39 37,38 36,37 35,36 34,35 33,34 32,33 31,32 30,31 29,30 28,29 27,28 26,27 25,26 24,25 23,24 22,23 21,22 20,21 19,20 18,19 17,18 16,17 15,16 14,15 13,14 12,13" fill="none" stroke="none" /></g></svg>