<?xml version="1.0" encoding="UTF-8"?>
<svg xmlns="http://www.w3.org/2000/svg" viewBox="0 0 100 100" data-draw-mode="point-graph" role="img" focusable="false"><title>WindUnderfoot</title><g id="graph"><polyline data-role="vertices" points="36.96,65.04 36.05,70.83 36.41,75.72 37.86,79.35 40.94,83.51 46.74,85.33 53.80,85.33 58.15,82.25 62.86,77.54 64.86,73.19 64.86,64.86 62.14,59.24 57.43,55.07 40.94,42.93 38.04,40.04 35.51,34.96 35.14,30.62 35.14,25.91 38.22,20.11 43.84,15.04 49.82,13.95 55.98,14.67 61.96,19.02 64.13,24.28 64.13,28.44 62.32,34.24 58.70,37.86 53.80,39.67 47.83,38.22 43.66,34.78 42.39,30.07 43.66,25.54 48.01,22.64 53.44,22.46 56.88,24.82 57.79,28.62 56.34,31.70 53.44,34.60 50.18,32.79 50.00,28.44 67.75,20.29 72.83,23.55 77.54,26.45 81.34,31.16 84.60,36.96 85.87,41.30 86.05,46.74 84.96,53.08 82.61,57.79 78.62,63.22 73.73,68.30 69.75,71.74 70.47,61.96 74.28,56.88 76.81,52.17 77.72,43.66 76.27,37.14 73.55,32.61 69.20,29.17 67.21,36.96 70.11,42.21 69.93,47.83 68.48,53.08 65.22,57.07 32.79,61.78 30.43,56.88 30.43,50.54 32.79,45.47 30.98,37.50 27.17,41.30 24.28,46.01 22.83,51.09 23.55,58.33 25.54,64.49 29.89,68.30 32.61,78.26 26.81,75.91 21.56,72.10 18.30,67.75 14.86,60.69 14.67,53.08 16.30,47.46 17.75,41.67 20.47,38.22 24.82,33.15 28.26,29.71 40.40,62.32 44.93,60.14 50.72,60.33 55.07,62.86 57.07,67.39 57.07,72.28 54.35,75.36 50.18,77.54 45.47,76.99 42.03,72.28 43.66,67.75 47.83,65.58 50.72,69.93" fill="none" stroke="none" /><polyline data-role="edges" points="17,85 84,85 83,84 82,83 81,82 80,81 79,80 78,79 77,78 76,77 75,76 3,75 3,4 2,3 1,2 1,74 73,74 72,73 71,72 70,71 69,70 68,69 15,68 15,16 16,17 17,18 18,19 19,20 20,21 21,22 22,23 23,24 24,25 25,26 26,27 27,28 28,29 29,30 30,31 31,32 32,33 33,34 34,35 35,36 36,37 37,38 38,39 22,40 24,58 25,59 59,60 60,61 61,62 62,63 11,63 11,12 12,13 13,14 14,15 14,67 66,67 65,66 64,65 0,64 0,1 4,5 5,6 6,7 7,8 8,9 9,10 10,11 10,52 52,53 53,54 54,55 55,56 56,57 57,58 40,41 41,42 42,43 43,44 44,45 45,46 46,47 47,48 49,50 50,51 9,51 48,49 0,86 86,87 87,88 88,89 89,90 90,91 91,92 92,93 93,94 94,95 95,96 96,97 97,98" fill="none" stroke="none" /></g></svg>